<?xml version="1.0" encoding="UTF-8"?>
<svg width="1594px" height="1377px" viewBox="0 0 1594 1377" version="1.1" xmlns="http://www.w3.org/2000/svg" xmlns:xlink="http://www.w3.org/1999/xlink">
    <!-- Generator: Sketch 51.3 (57544) - http://www.bohemiancoding.com/sketch -->
    <title>_2_CHARACTER</title>
    <desc>Created with Sketch.</desc>
    <defs></defs>
    <g id="Page-1" stroke="none" stroke-width="1" fill="none" fill-rule="evenodd">
        <g id="Asset-9" transform="translate(-996.000000, -463.000000)">
            <g id="_2_CHARACTER" transform="translate(998.000000, 466.000000)">
                <g id="BICYCLE" transform="translate(0.000000, 516.000000)" stroke="#423C52" stroke-linecap="round" stroke-width="5">
                    <circle id="Oval" cx="331.78" cy="556.58" r="298.91"></circle>
                    <path d="M154.6,840.55 C62.7,787.39 0.87,688.03 0.87,574.23" id="Shape"></path>
                    <circle id="Oval" cx="1260.84" cy="556.58" r="298.91"></circle>
                    <path d="M1424.6,269.26 C1531.36,326.34 1599.26,443.39 1587.6,571.54" id="Shape"></path>
                    <path d="M1260.84,556.58 L1086.52,30 C1084.27265,23.2092306 1085.4224,15.7523774 1089.61084,9.95391914 C1093.79927,4.15546086 1100.51702,0.720576035 1107.67,0.72 L1270.55,0.72 C1291.81414,0.719999835 1312.20721,9.16783042 1327.24229,24.2047848 C1342.27737,39.2417391 1350.72265,59.6358615 1350.72,80.9 C1350.71448,125.178286 1314.81829,161.07 1270.54,161.07 L1241.87,161.07 C1232.52469,161.077687 1223.78885,156.432322 1218.57,148.68" id="Shape"></path>
                    <circle id="Oval" fill="#FFFFFF" fill-rule="nonzero" cx="1260.52" cy="557.36" r="12.43"></circle>
                    <path d="M536.4,225.62 L331.05,556.53 L861.3,556.53 L1022.02,297.53 C1049.7674,252.81991 1098.64957,225.623648 1151.27,225.62 L536.4,225.62 Z" id="Shape"></path>
                    <path d="M1101.53,72.68 C1129.27465,27.967032 1178.15857,0.769798724 1230.78,0.77" id="Shape"></path>
                    <rect id="Rectangle-path" x="636.3" y="670.84" width="152.34" height="22.57"></rect>
                    <rect id="Rectangle-path" x="437.85" y="136.04" width="195.95" height="33" rx="15.06"></rect>
                    <path d="M535.82,225.62 L535.82,169.04" id="Shape"></path>
                    <circle id="Oval" fill="#FFFFFF" fill-rule="nonzero" cx="331.05" cy="556.53" r="12.43"></circle>
                </g>
                <g id="MAN" transform="translate(422.000000, 0.000000)">
                    <g id="LEG" transform="translate(15.000000, 455.000000)">
                        <path d="M347.25,617.53 L177,617.53 C164.051264,617.532187 152.003983,610.900983 145.078921,599.959626 C138.153858,589.01827 137.316419,575.292071 142.86,563.59 L316.45,197 L79.8,197 C46.1533798,197.023593 15.4594863,177.795229 0.8,147.51 L193.64,0.7 L468.37,0.7 C566.26,0.7 628.37,105.63 581.22,191.43 L347.25,617.53 Z" id="Shape" fill="#423C52" fill-rule="nonzero"></path>
                        <g id="SHOES-2" transform="translate(166.000000, 617.000000)">
                            <path d="M181.25,0.53 C175.75,13.97 158.72,70.44 188.94,83.25 C217.54,95.37 214.79,111.84 214.79,111.84 L27.26,111.84 C18.5074147,111.836784 10.2960817,107.603424 5.21663371,100.475523 C0.137185733,93.3476227 -1.18396414,84.2042158 1.67,75.93 L27.67,0.58 L181.25,0.53 Z" id="Shape" fill="#907B00" fill-rule="nonzero"></path>
                            <path d="M143.69,21.58 L177.39,21.58 C181.255993,21.58 184.39,24.7140068 184.39,28.58 C184.39,32.4459932 181.255993,35.58 177.39,35.58 L172.32,35.58" id="Shape" stroke="#FFFFFF" stroke-width="4"></path>
                            <path d="M143.69,35.58 L177.39,35.58 C181.255993,35.58 184.39,38.7140068 184.39,42.58 C184.39,46.4459932 181.255993,49.58 177.39,49.58 L172.32,49.58" id="Shape" stroke="#FFFFFF" stroke-width="4"></path>
                            <path d="M214.79,111.85 L27.26,111.85 C18.5031741,111.851132 10.2863038,107.617776 5.20401674,100.486692 C0.121729692,93.3556079 -1.19857989,84.2071083 1.66,75.93 L3.45,70.74 C5.42702915,84.0216053 16.8320561,93.852645 30.26,93.85 L206.17,93.85 C216.23,103.21 214.79,111.85 214.79,111.85 Z" id="Shape" fill="#FFFFFF" fill-rule="nonzero"></path>
                        </g>
                    </g>
                    <g id="ARM" transform="translate(781.000000, 421.000000)">
                        <path d="M71.67,118.48 C71.67,118.48 133.42,123.98 142.58,92.08 C151.74,60.18 139.51,15.08 121.58,4.08 C117.76,1.74 47.36,0.08 47.36,0.08 L0.88,103 C58.08,103.67 79.96,97.4 79.96,97.4 C79.96,97.4 66.39,100.15 71.67,118.48 Z" id="Shape" fill="#FFDB00" fill-rule="nonzero"></path>
                        <path d="M117.59,113.46 C121.189744,110.141177 123.814249,105.901858 125.18,101.2 C128.6,89.29 129.04,76.55 127.31,63.42" id="Shape" stroke="#423C52" stroke-width="5" stroke-linecap="round" stroke-linejoin="round"></path>
                        <path d="M0.88,103 L80.35,96.42 C89.5155053,95.6653336 96.5697887,88.0065215 96.57,78.81 L96.57,66.77" id="Shape" stroke="#423C52" stroke-width="5" stroke-linecap="round" stroke-linejoin="round"></path>
                    </g>
                    <g id="HEAD-4" transform="translate(355.000000, 0.000000)">
                        <polygon id="NECK-3" fill="#FFDB00" fill-rule="nonzero" points="142.17 115.27 126.84 156.3 101.17 155.88 0.06 154.37 69.72 62.84"></polygon>
                        <path d="M101.47,62.84 L109.14,108.32 C111.269854,121.019464 122.263173,130.321503 135.14,130.32 L173.7,130.32 C178.024401,130.313158 182.146397,128.487271 185.0572,125.289192 C187.968004,122.091113 189.399008,117.815959 189,113.51 L187.24,94.37 L193.12,94.37 C194.879033,94.3698293 196.536519,93.546068 197.598838,92.1440426 C198.661157,90.7420172 199.005753,88.9234746 198.53,87.23 L186.17,43 L101.47,62.84 Z" id="HEAD-5" fill="#FFDB00" fill-rule="nonzero"></path>
                        <g id="EAR-3" transform="translate(69.000000, 62.000000)">
                            <path d="M17.93,0.84 L39.25,0.84 L39.25,40.0700112 L17.93,40.07 C13.1765084,40.0753082 8.61589006,38.1907108 5.25278664,34.8313588 C1.88968322,31.4720067 -2.96382086e-06,26.9134946 0,22.16 L0,18.75 C0,8.85858013 8.01858013,0.84 17.91,0.84 L17.93,0.84 Z" id="Shape" fill="#FFDB00" fill-rule="nonzero"></path>
                            <path d="M1.36,22.11 C1.36,32.95 13.46,42.56 24.29,42.56 L46.14,42.56" id="Shape" stroke="#423C52" stroke-width="5" stroke-linecap="round"></path>
                            <path d="M29.62,23.47 C29.62,16.842583 24.247417,11.47 17.62,11.47" id="Shape" stroke="#423C52" stroke-width="5" stroke-linecap="round"></path>
                        </g>
                        <g id="EYE-2" transform="translate(145.000000, 57.000000)">
                            <ellipse id="Oval" fill="#423C52" fill-rule="nonzero" cx="15.87" cy="20.18" rx="3.3" ry="4.44"></ellipse>
                            <path d="M0.47,5.84 C0.47,5.84 11.47,1.07 19.17,0.71" id="Shape" stroke="#423C52" stroke-width="5" stroke-linecap="round"></path>
                        </g>
                        <g id="CAP" transform="translate(62.000000, 0.000000)" stroke="#423C52" stroke-linecap="round" stroke-width="5">
                            <path d="M0.26,69.76 L1.74,63.76 C10.2036259,29.1585223 40.038336,3.97904539 75.57,1.45 L93.94,0.15 C107.396774,-1.06900279 119.457277,8.44851662 121.4,21.82 L124.17,40.88 L0.26,69.76 Z" id="Shape" fill="#FFFFFF" fill-rule="nonzero" stroke-linejoin="round"></path>
                            <path d="M0.26,69.76 L173.3,30.03" id="Shape"></path>
                        </g>
                        <path d="M126.84,56.71 C116.34,80.63 128.34,95.63 131.96,98.35 C142.28,106.08 178.73,96.72 187.27,94.35 C187.27,94.35 194.58,144.13 186.27,145.42 C170.94,147.8 116.6,130.94 109.27,117.01 C106.83,112.41 110.01,96.17 109.53,84.89 C109.18,76.32 108.25,62.82 101.47,62.82 L126.84,56.71 Z" id="BEARD" fill="#423C52" fill-rule="nonzero"></path>
                    </g>
                    <g id="HOODY-2" transform="translate(0.000000, 72.000000)">
                        <path d="M481.84,84.3 L309,3.76 C292.9817,-3.70202259 273.917042,2.32570986 265.1,17.64 L218.5,98.64 C209.06,117.37 225.5,138.7 246.02,134.35 L481.84,84.3 Z" id="Shape" fill="#FE552F" fill-rule="nonzero"></path>
                        <path d="M357,82.37 L461.23,82.37 C503.037431,82.423 541.315376,105.818079 560.43,143 C595.19,210.36 673.43,312.75 834.12,335.91 L781.88,452.91 C781.88,452.91 609.81,523.5 417.32,383.81 L325.08,383.81 C249.576441,383.811157 176.157253,408.57696 116.08,454.31 L15.85,530.62 C15.85,530.62 -50.24,392.37 94.65,238.86 C145.35,185.14 187.36,149.67 219.99,126.34 C259.954502,97.7487908 307.861231,82.3743008 357,82.37 Z" id="Shape" fill="#FE552F" fill-rule="nonzero"></path>
                        <path d="M427.78,125.81 C473.3,214.01 594.78,368.1 805.09,398.42" id="Shape" stroke="#FFFFFF" stroke-width="5" stroke-linecap="round"></path>
                        <path d="M412.9,130.65 C456.71,220.94 585.85,380.88 798.54,411.53" id="Shape" stroke="#FFFFFF" stroke-width="5" stroke-linecap="round"></path>
                        <path d="M220,125.23 C259.970981,96.6686063 307.873304,81.3223801 357,81.34 L479.89,81.3399848" id="Shape" stroke="#423C52" stroke-width="5" stroke-linecap="round"></path>
                        <path d="M419,387.06 C389,366.39 341.92,298.75 341.92,298.75" id="Shape" stroke="#423C52" stroke-width="5" stroke-linecap="round"></path>
                        <path d="M832.05,337.93 L780.84,453.87 C780.84,453.87 608.77,524.47 416.28,384.78" id="Shape" stroke="#423C52" stroke-width="5" stroke-linecap="round"></path>
                    </g>
                </g>
            </g>
        </g>
    </g>
</svg>