<?xml version="1.0" encoding="UTF-8"?>
<svg width="450px" height="512px" viewBox="0 0 450 512" version="1.1" xmlns="http://www.w3.org/2000/svg" xmlns:xlink="http://www.w3.org/1999/xlink">
    <!-- Generator: Sketch 51.3 (57544) - http://www.bohemiancoding.com/sketch -->
    <title>climate-change</title>
    <desc>Created with Sketch.</desc>
    <defs></defs>
    <g id="Page-1" stroke="none" stroke-width="1" fill="none" fill-rule="evenodd">
        <g id="climate-change" fill-rule="nonzero">
            <path d="M224.9375,7.4375 C105.097656,7.4375 7.945312,104.589844 7.945312,224.429688 C7.945312,269.105469 21.457031,310.621094 44.601562,345.132812 L44.601562,397.109375 C44.601562,407.253906 52.824219,415.476562 62.96875,415.476562 C73.117188,415.476562 81.339844,407.253906 81.339844,397.109375 L81.339844,387.089844 C119.601562,420.894531 169.867188,441.417969 224.9375,441.417969 C344.777344,441.417969 441.925781,344.269531 441.925781,224.429688 C441.925781,104.589844 344.777344,7.4375 224.9375,7.4375 Z" id="Shape" fill="#2DD2E3"></path>
            <path d="M224.761719,7.4375 C194.925781,7.4375 166.496094,13.464844 140.621094,24.359375 L140.621094,48.550781 C140.621094,54.007812 145.046875,58.433594 150.503906,58.433594 L258.714844,58.433594 C264.132812,58.433594 269.324219,60.585938 273.15625,64.414062 L317.210938,108.46875 C321.039062,112.296875 323.191406,117.492188 323.191406,122.910156 L323.191406,156.726562 C323.191406,162.144531 325.34375,167.339844 329.175781,171.167969 C336.902344,178.894531 349.34375,179.171875 357.40625,171.796875 L414.667969,119.394531 C377.664062,52.636719 306.496094,7.4375 224.761719,7.4375 Z" id="Shape" fill="#1C741E"></path>
            <path d="M232.136719,86.140625 L221.8125,97.664062 C218.425781,101.445312 218.585938,107.214844 222.175781,110.804688 L240.816406,129.441406 C247.339844,135.964844 258.390625,133.808594 261.984375,125.3125 L265.582031,116.796875 C267.644531,111.921875 266.542969,106.285156 262.800781,102.542969 L246.015625,85.757812 C242.136719,81.878906 235.796875,82.054688 232.136719,86.140625 Z" id="Shape" fill="#00818C"></path>
            <path d="M441.925781,224.429688 C441.925781,130.050781 381.671875,49.761719 297.535156,19.898438 C352.355469,59.28125 388.066406,123.585938 388.066406,196.238281 C388.066406,316.078125 290.917969,413.226562 171.078125,413.226562 C145.613281,413.226562 121.179688,408.828125 98.480469,400.769531 C123.167969,418.503906 151.734375,431.183594 182.660156,437.292969 L182.660156,486.179688 C182.660156,496.328125 190.886719,504.550781 201.03125,504.550781 C211.175781,504.550781 219.398438,496.328125 219.398438,486.179688 L219.398438,441.339844 C221.238281,441.386719 223.085938,441.417969 224.9375,441.417969 C248.445312,441.417969 271.078125,437.664062 292.28125,430.746094 L292.28125,481.605469 C292.28125,491.753906 300.507812,499.976562 310.652344,499.976562 C320.796875,499.976562 329.019531,491.753906 329.019531,481.605469 L329.019531,427.628906 C329.019531,437.773438 337.246094,446 347.390625,446 C357.539062,446 365.761719,437.773438 365.761719,427.628906 L365.761719,389.5 C412.371094,349.703125 441.925781,290.519531 441.925781,224.429688 Z" id="Shape" fill="#00BFD8"></path>
            <path d="M256.066406,215.394531 C256.636719,206.726562 253.726562,197.890625 247.371094,191.125 L218.402344,160.285156 C214.839844,156.488281 208.484375,158.140625 207.222656,163.195312 C206,168.09375 199.902344,169.78125 196.332031,166.210938 L180.25,150.128906 C176.410156,146.289062 176.410156,140.0625 180.25,136.222656 L210.984375,103.664062 C214.046875,100.417969 214.671875,95.433594 212.183594,91.726562 C210.371094,89.035156 207.402344,87.515625 204.3125,87.515625 L123.726562,87.515625 C106.339844,87.515625 92.175781,101.476562 91.925781,118.863281 C91.75,130.90625 95.894531,142.613281 103.609375,151.863281 L128.421875,181.613281 L128.421875,481.605469 C128.421875,491.753906 136.648438,499.976562 146.792969,499.976562 C156.9375,499.976562 165.164062,491.753906 165.164062,481.605469 L165.164062,287.453125 C165.164062,282.613281 169.085938,278.6875 173.925781,278.6875 C178.765625,278.6875 182.6875,282.613281 182.6875,287.453125 L182.6875,385.40625 C182.6875,395.550781 190.914062,403.773438 201.058594,403.773438 C211.203125,403.773438 219.429688,395.550781 219.429688,385.40625 L219.429688,304.109375 C219.710938,314.007812 227.804688,321.949219 237.773438,321.949219 C247.917969,321.949219 256.140625,313.722656 256.140625,303.578125 L256.140625,215.394531 L256.066406,215.394531 Z" id="Shape" fill="#1C741E"></path>
            <path d="M438.429688,186.410156 L393.960938,186.410156 C389.277344,186.410156 384.785156,188.269531 381.476562,191.582031 L331.6875,241.367188 C328.378906,244.679688 326.515625,249.167969 326.515625,253.851562 L326.515625,293.785156 C326.515625,311.464844 340.714844,325.871094 358.394531,326.125 L365.765625,326.230469 L365.765625,481.605469 C365.765625,491.753906 373.988281,499.976562 384.132812,499.976562 C394.28125,499.976562 402.503906,491.753906 402.503906,481.605469 L402.503906,348.886719 C427.226562,313.652344 441.75,270.742188 441.75,224.429688 C441.753906,211.457031 440.609375,198.753906 438.429688,186.410156 Z" id="Shape" fill="#1C741E"></path>
            <g id="Group" transform="translate(128.000000, 19.000000)" fill="#1C741E">
                <path d="M254.800781,129.554688 L286.667969,100.394531 C261.242188,54.527344 219.691406,18.839844 169.667969,0.992188 C212.058594,31.496094 242.992188,76.910156 254.800781,129.554688 Z" id="Shape"></path>
                <path d="M310.429688,167.410156 L265.960938,167.410156 C263.863281,167.410156 261.808594,167.800781 259.878906,168.511719 C259.992188,171.40625 260.070312,174.3125 260.070312,177.238281 C260.070312,224.886719 244.699219,268.941406 218.660156,304.738281 C222.289062,306.214844 226.242188,307.066406 230.394531,307.125 L237.765625,307.230469 L237.765625,462.605469 C237.765625,472.753906 245.988281,480.976562 256.132812,480.976562 C266.28125,480.976562 274.503906,472.753906 274.503906,462.605469 L274.503906,329.886719 C299.226562,294.652344 313.75,251.742188 313.75,205.429688 C313.753906,192.457031 312.609375,179.753906 310.429688,167.410156 Z" id="Shape"></path>
                <path d="M0.421875,390.023438 L0.421875,462.605469 C0.421875,472.753906 8.644531,480.976562 18.792969,480.976562 C28.9375,480.976562 37.160156,472.753906 37.160156,462.605469 L37.160156,394.144531 C24.617188,393.808594 12.34375,392.402344 0.421875,390.023438 Z" id="Shape"></path>
            </g>
            <path d="M449.375,224.429688 C449.375,164.480469 426.027344,108.117188 383.640625,65.726562 C343.222656,25.308594 290.097656,2.222656 233.277344,0.160156 C227.449219,-0.0625 221.621094,-0.0507812 215.789062,0.183594 C188.792969,1.238281 162.570312,7.035156 137.730469,17.496094 C137.410156,17.632812 137.105469,17.792969 136.8125,17.964844 C90.59375,37.675781 51.511719,72.71875 26.914062,118.707031 C24.972656,122.332031 26.339844,126.84375 29.964844,128.785156 C33.59375,130.726562 38.105469,129.359375 40.046875,125.730469 C61.3125,85.976562 94.167969,54.980469 133.171875,35.996094 L133.171875,48.550781 C133.171875,58.105469 140.945312,65.878906 150.503906,65.878906 L258.714844,65.878906 C262.179688,65.878906 265.4375,67.230469 267.890625,69.679688 L311.941406,113.734375 C314.394531,116.183594 315.742188,119.445312 315.742188,122.910156 L315.742188,156.726562 C315.742188,164.171875 318.644531,171.171875 323.90625,176.4375 C329.351562,181.878906 336.476562,184.621094 343.617188,184.621094 C350.34375,184.621094 357.082031,182.1875 362.433594,177.289062 L412.632812,131.351562 C420.078125,146.300781 425.789062,162.261719 429.496094,178.964844 L393.960938,178.964844 C387.253906,178.964844 380.949219,181.574219 376.210938,186.3125 L348.632812,213.890625 C345.722656,216.800781 345.722656,221.515625 348.632812,224.425781 C351.539062,227.332031 356.257812,227.332031 359.164062,224.425781 L386.742188,196.847656 C388.671875,194.917969 391.234375,193.855469 393.960938,193.855469 L432.085938,193.855469 C433.558594,203.945312 434.304688,214.203125 434.304688,224.429688 C434.304688,267.714844 421.199219,309.273438 396.40625,344.609375 C395.527344,345.859375 395.058594,347.355469 395.058594,348.886719 L395.058594,481.605469 C395.058594,487.628906 390.15625,492.527344 384.132812,492.527344 C378.109375,492.527344 373.210938,487.628906 373.210938,481.605469 L373.210938,326.226562 C373.210938,322.15625 369.941406,318.839844 365.871094,318.78125 L358.503906,318.675781 C344.972656,318.480469 333.964844,307.3125 333.964844,293.78125 L333.964844,253.847656 C333.964844,251.121094 335.027344,248.558594 336.953125,246.628906 C339.863281,243.722656 339.863281,239.007812 336.953125,236.097656 C334.046875,233.191406 329.328125,233.191406 326.421875,236.097656 C321.679688,240.839844 319.070312,247.144531 319.070312,253.847656 L319.070312,293.78125 C319.070312,315.410156 336.664062,333.257812 358.289062,333.566406 L358.316406,333.570312 L358.316406,427.625 C358.316406,433.648438 353.417969,438.550781 347.394531,438.550781 C341.371094,438.550781 336.46875,433.648438 336.46875,427.625 C336.46875,423.511719 333.136719,420.179688 329.023438,420.179688 C324.910156,420.179688 321.574219,423.511719 321.574219,427.625 L321.574219,481.605469 C321.574219,487.628906 316.675781,492.527344 310.652344,492.527344 C304.632812,492.527344 299.730469,487.628906 299.730469,481.605469 L299.730469,430.746094 C299.730469,428.359375 298.589844,426.121094 296.65625,424.71875 C294.726562,423.316406 292.242188,422.925781 289.972656,423.667969 C269.015625,430.503906 247.136719,433.96875 224.9375,433.96875 C223.15625,433.96875 221.359375,433.945312 219.589844,433.898438 C217.589844,433.875 215.640625,434.613281 214.203125,436.011719 C212.765625,437.414062 211.957031,439.335938 211.957031,441.347656 L211.957031,486.179688 C211.957031,492.203125 207.054688,497.101562 201.03125,497.101562 C195.011719,497.101562 190.109375,492.203125 190.109375,486.179688 L190.109375,437.289062 C190.109375,433.730469 187.597656,430.671875 184.105469,429.984375 C180.265625,429.222656 176.421875,428.339844 172.609375,427.363281 L172.609375,287.453125 C172.609375,286.726562 173.199219,286.136719 173.925781,286.136719 C174.652344,286.136719 175.242188,286.726562 175.242188,287.453125 L175.242188,385.40625 C175.242188,399.644531 186.824219,411.222656 201.058594,411.222656 C215.296875,411.222656 226.878906,399.644531 226.878906,385.40625 L226.878906,327.023438 C230.183594,328.546875 233.875,329.398438 237.773438,329.398438 C252.007812,329.398438 263.589844,317.816406 263.589844,303.578125 L263.589844,215.394531 C263.589844,215.167969 263.582031,214.941406 263.558594,214.71875 C263.9375,204.144531 260.054688,193.746094 252.800781,186.023438 L223.832031,155.1875 C220.316406,151.445312 215.046875,149.921875 210.074219,151.214844 C205.636719,152.371094 202.082031,155.605469 200.484375,159.832031 L185.515625,144.863281 C184.511719,143.863281 184.789062,142.265625 185.664062,141.335938 L213.722656,111.613281 C214.519531,113.222656 215.574219,114.734375 216.910156,116.070312 L235.550781,134.710938 C239.425781,138.585938 244.628906,140.699219 249.996094,140.699219 C251.300781,140.699219 252.617188,140.574219 253.925781,140.320312 C260.613281,139.015625 266.191406,134.488281 268.84375,128.210938 L272.441406,119.695312 C275.699219,111.992188 273.980469,103.191406 268.066406,97.277344 L251.28125,80.496094 C247.992188,77.203125 243.429688,75.402344 238.789062,75.519531 C234.140625,75.644531 229.691406,77.707031 226.585938,81.171875 L219.339844,89.265625 C219.046875,88.6875 218.730469,88.121094 218.363281,87.578125 C215.207031,82.875 209.957031,80.070312 204.3125,80.070312 L123.722656,80.070312 C102.390625,80.070312 84.785156,97.425781 84.476562,118.753906 C84.277344,132.570312 89.039062,146.023438 97.890625,156.632812 L120.972656,184.308594 L120.972656,340.574219 C120.972656,344.6875 124.308594,348.019531 128.421875,348.019531 C132.53125,348.019531 135.867188,344.6875 135.867188,340.574219 L135.867188,181.613281 C135.867188,179.867188 135.257812,178.179688 134.140625,176.84375 L109.328125,147.09375 C102.757812,139.21875 99.222656,129.230469 99.367188,118.972656 C99.558594,105.734375 110.484375,94.964844 123.722656,94.964844 L204.3125,94.964844 C206.328125,95.375 206.75,96.570312 205.566406,98.550781 L174.898438,131.042969 C171.6875,134.296875 169.921875,138.601562 169.921875,143.179688 C169.921875,147.792969 171.71875,152.132812 174.980469,155.398438 L191.0625,171.480469 C194.609375,175.023438 199.8125,176.394531 204.644531,175.054688 C208.976562,173.855469 212.445312,170.632812 213.992188,166.46875 L241.941406,196.222656 C246.648438,201.230469 249.085938,208.039062 248.636719,214.910156 C248.601562,215.414062 248.625,215.914062 248.695312,216.40625 L248.695312,303.578125 C248.695312,309.601562 243.792969,314.503906 237.769531,314.503906 C231.832031,314.503906 227.042969,309.84375 226.871094,303.898438 C226.753906,299.828125 223.375,296.558594 219.320312,296.664062 C215.25,296.722656 211.980469,300.039062 211.980469,304.109375 L211.980469,385.40625 C211.980469,391.429688 207.082031,396.332031 201.058594,396.332031 C195.035156,396.332031 190.132812,391.429688 190.132812,385.40625 L190.132812,287.453125 C190.132812,278.515625 182.863281,271.242188 173.925781,271.242188 C164.984375,271.242188 157.714844,278.515625 157.714844,287.453125 L157.714844,481.609375 C157.714844,487.632812 152.8125,492.53125 146.792969,492.53125 C140.769531,492.53125 135.867188,487.632812 135.867188,481.609375 L135.867188,372.679688 C135.867188,368.566406 132.535156,365.234375 128.421875,365.234375 C124.308594,365.234375 120.972656,368.566406 120.972656,372.679688 L120.972656,406.363281 C108.621094,399.289062 96.980469,390.972656 86.269531,381.511719 C84.078125,379.570312 80.949219,379.097656 78.277344,380.304688 C75.609375,381.507812 73.894531,384.164062 73.894531,387.09375 L73.894531,397.109375 C73.894531,403.132812 68.992188,408.03125 62.96875,408.03125 C56.945312,408.03125 52.046875,403.132812 52.046875,397.109375 L52.046875,345.132812 C52.046875,343.65625 51.609375,342.210938 50.785156,340.984375 C27.632812,306.460938 15.394531,266.160156 15.394531,224.429688 C15.394531,200.023438 19.550781,176.121094 27.742188,153.378906 C29.136719,149.511719 27.132812,145.242188 23.261719,143.847656 C19.394531,142.457031 15.125,144.460938 13.730469,148.332031 C4.949219,172.695312 0.5,198.296875 0.5,224.429688 C0.5,268.359375 13.164062,310.820312 37.152344,347.378906 L37.152344,397.109375 C37.152344,411.34375 48.734375,422.925781 62.96875,422.925781 C75.382812,422.925781 85.777344,414.121094 88.238281,402.425781 C98.527344,410.34375 109.488281,417.34375 120.972656,423.355469 L120.972656,481.605469 C120.972656,495.84375 132.554688,507.425781 146.792969,507.425781 C161.027344,507.425781 172.609375,495.84375 172.609375,481.605469 L172.609375,442.695312 C173.476562,442.902344 174.34375,443.125 175.214844,443.320312 L175.214844,486.179688 C175.214844,500.417969 186.796875,512 201.03125,512 C215.265625,512 226.847656,500.417969 226.847656,486.179688 L226.847656,448.855469 C246.542969,448.691406 265.992188,445.972656 284.835938,440.765625 L284.835938,481.605469 C284.835938,495.84375 296.417969,507.425781 310.652344,507.425781 C324.890625,507.425781 336.46875,495.84375 336.46875,481.605469 L336.46875,451.019531 C339.789062,452.574219 343.492188,453.445312 347.394531,453.445312 C351.296875,453.445312 354.996094,452.570312 358.316406,451.011719 L358.316406,481.605469 C358.316406,495.84375 369.898438,507.425781 384.132812,507.425781 C398.367188,507.425781 409.949219,495.84375 409.949219,481.605469 L409.949219,351.480469 C435.742188,314.003906 449.375,270.125 449.375,224.429688 Z M227.359375,102.632812 L237.683594,91.109375 C238.183594,90.550781 238.785156,90.417969 239.199219,90.40625 L239.261719,90.40625 C239.671875,90.40625 240.242188,90.519531 240.75,91.027344 L257.53125,107.808594 C259.140625,109.414062 259.605469,111.804688 258.722656,113.898438 L255.121094,122.414062 C254.082031,124.871094 251.941406,125.53125 251.070312,125.699219 C250.195312,125.871094 247.96875,126.0625 246.082031,124.175781 L227.441406,105.539062 C226.648438,104.746094 226.613281,103.46875 227.359375,102.632812 Z M352.375,166.300781 C347.242188,171 339.363281,170.828125 334.441406,165.902344 C331.988281,163.453125 330.640625,160.191406 330.640625,156.726562 L330.640625,122.910156 C330.640625,115.464844 327.738281,108.464844 322.476562,103.199219 L278.421875,59.144531 C273.15625,53.882812 266.15625,50.984375 258.714844,50.984375 L150.503906,50.984375 C149.160156,50.984375 148.066406,49.890625 148.066406,48.546875 L148.066406,29.449219 C169.710938,20.925781 192.917969,15.957031 216.863281,15.042969 C217.394531,15.023438 217.929688,15.003906 218.464844,14.988281 C219.1875,14.964844 219.910156,14.945312 220.632812,14.933594 C221.949219,14.90625 223.265625,14.886719 224.582031,14.886719 C224.652344,14.886719 224.722656,14.882812 224.792969,14.882812 C225.023438,14.882812 225.253906,14.890625 225.484375,14.890625 C226.738281,14.894531 227.988281,14.914062 229.238281,14.9375 C229.941406,14.953125 230.640625,14.96875 231.339844,14.992188 C231.957031,15.007812 232.574219,15.039062 233.191406,15.0625 C304.132812,17.914062 369.011719,56.632812 405.242188,117.921875 L352.375,166.300781 Z" id="Shape" fill="#000000"></path>
        </g>
    </g>
</svg>