<svg xmlns="http://www.w3.org/2000/svg" viewBox="0 0 450 512"><g fill-rule="nonzero" fill="none"><path d="M224.938 7.438C105.097 7.438 7.945 104.59 7.945 224.43c0 44.675 13.512 86.191 36.657 120.703v51.976c0 10.145 8.222 18.368 18.367 18.368 10.148 0 18.37-8.223 18.37-18.368v-10.02c38.263 33.806 88.528 54.329 143.599 54.329 119.84 0 216.988-97.148 216.988-216.988S344.777 7.437 224.938 7.437z" fill="#2DD2E3"/><path d="M224.762 7.438c-29.836 0-58.266 6.027-84.14 16.921v24.192c0 5.457 4.425 9.883 9.882 9.883h108.21c5.419 0 10.61 2.152 14.442 5.98l44.055 44.055a20.424 20.424 0 015.98 14.441v33.817a20.412 20.412 0 005.985 14.441c7.726 7.727 20.168 8.004 28.23.629l57.262-52.402C377.664 52.637 306.496 7.438 224.762 7.438z" fill="#1C741E"/><path d="M232.137 86.14l-10.325 11.524a9.562 9.562 0 00.364 13.14l18.64 18.637c6.524 6.524 17.575 4.368 21.168-4.129l3.598-8.515a12.996 12.996 0 00-2.781-14.254l-16.785-16.785c-3.88-3.88-10.22-3.703-13.88.383z" fill="#00818C"/><path d="M441.926 224.43c0-94.38-60.254-174.668-144.39-204.532 54.82 39.383 90.53 103.688 90.53 176.34 0 119.84-97.148 216.989-216.988 216.989-25.465 0-49.898-4.399-72.598-12.457 24.688 17.734 53.254 30.414 84.18 36.523v48.887c0 10.148 8.227 18.37 18.371 18.37 10.145 0 18.367-8.222 18.367-18.37v-44.84c1.84.047 3.688.078 5.54.078 23.507 0 46.14-3.754 67.343-10.672v50.86c0 10.148 8.227 18.37 18.371 18.37 10.145 0 18.368-8.222 18.368-18.37v-53.977c0 10.144 8.226 18.371 18.37 18.371 10.15 0 18.372-8.227 18.372-18.371V389.5c46.61-39.797 76.164-98.98 76.164-165.07z" fill="#00BFD8"/><path d="M256.066 215.395c.57-8.668-2.34-17.504-8.695-24.27l-28.969-30.84c-3.562-3.797-9.918-2.144-11.18 2.91-1.222 4.899-7.32 6.586-10.89 3.016l-16.082-16.082c-3.84-3.84-3.84-10.066 0-13.906l30.734-32.559c3.063-3.246 3.688-8.23 1.2-11.937a9.483 9.483 0 00-7.871-4.211h-80.586c-17.387 0-31.551 13.96-31.801 31.347a50.373 50.373 0 0011.683 33l24.813 29.75v299.992c0 10.149 8.226 18.372 18.371 18.372 10.144 0 18.371-8.223 18.371-18.372V287.453c0-4.84 3.922-8.765 8.762-8.765s8.762 3.925 8.762 8.765v97.953c0 10.145 8.226 18.367 18.37 18.367 10.145 0 18.372-8.222 18.372-18.367V304.11c.28 9.899 8.375 17.84 18.343 17.84 10.145 0 18.368-8.226 18.368-18.37v-88.184h-.075zM438.43 186.41h-44.47c-4.683 0-9.175 1.86-12.483 5.172l-49.79 49.785a17.667 17.667 0 00-5.171 12.485v39.933c0 17.68 14.199 32.086 31.879 32.34l7.37.105v155.375c0 10.149 8.223 18.372 18.368 18.372 10.148 0 18.37-8.223 18.37-18.372V348.887c24.724-35.235 39.247-78.145 39.247-124.457a218.114 218.114 0 00-3.32-38.02z" fill="#1C741E"/><g fill="#1C741E"><path d="M382.8 148.555l31.868-29.16c-25.426-45.868-66.977-81.555-117-99.403 42.39 30.504 73.324 75.918 85.133 128.563zM438.43 186.41h-44.47c-2.097 0-4.151.39-6.081 1.102.113 2.894.191 5.8.191 8.726 0 47.649-15.37 91.703-41.41 127.5a32.27 32.27 0 0011.735 2.387l7.37.105v155.375c0 10.149 8.223 18.372 18.368 18.372 10.148 0 18.37-8.223 18.37-18.372V348.887c24.724-35.235 39.247-78.145 39.247-124.457a218.114 218.114 0 00-3.32-38.02zM128.422 409.023v72.582c0 10.149 8.223 18.372 18.371 18.372 10.144 0 18.367-8.223 18.367-18.372v-68.46a217.369 217.369 0 01-36.738-4.122z"/></g><path d="M449.375 224.43c0-59.95-23.348-116.313-65.734-158.703C343.223 25.309 290.098 2.223 233.277.16a223.152 223.152 0 00-17.488.024c-26.996 1.054-53.219 6.851-78.059 17.312-.32.137-.625.297-.917.469-46.22 19.71-85.301 54.754-109.899 100.742a7.447 7.447 0 1013.133 7.023c21.266-39.753 54.121-70.75 93.125-89.734v12.555c0 9.554 7.773 17.328 17.332 17.328h108.21c3.466 0 6.724 1.351 9.177 3.8l44.05 44.055c2.454 2.45 3.801 5.711 3.801 9.176v33.817c0 7.445 2.903 14.445 8.164 19.71a27.808 27.808 0 0019.711 8.184 27.788 27.788 0 0018.817-7.332l50.199-45.937a207.722 207.722 0 0116.863 47.613h-35.535c-6.707 0-13.012 2.61-17.75 7.347l-27.578 27.579a7.448 7.448 0 1010.531 10.535l27.578-27.578a10.141 10.141 0 017.219-2.993h38.125a212.11 212.11 0 012.219 30.575c0 43.285-13.106 84.843-37.899 120.18a7.438 7.438 0 00-1.347 4.277v132.718c0 6.024-4.903 10.922-10.926 10.922-6.024 0-10.922-4.898-10.922-10.922V326.227c0-4.07-3.27-7.387-7.34-7.446l-7.367-.105c-13.531-.196-24.54-11.363-24.54-24.895v-39.933c0-2.727 1.063-5.29 2.99-7.22a7.443 7.443 0 000-10.53 7.45 7.45 0 00-10.532 0c-4.742 4.742-7.352 11.047-7.352 17.75v39.933c0 21.63 17.594 39.477 39.22 39.785l.026.004v94.055c0 6.023-4.898 10.926-10.921 10.926-6.024 0-10.926-4.903-10.926-10.926a7.444 7.444 0 00-7.446-7.445 7.447 7.447 0 00-7.449 7.445v53.98c0 6.024-4.898 10.922-10.922 10.922-6.02 0-10.922-4.898-10.922-10.922v-50.859a7.44 7.44 0 00-3.074-6.027 7.434 7.434 0 00-6.683-1.051c-20.957 6.836-42.836 10.3-65.036 10.3-1.78 0-3.578-.023-5.347-.07-2-.023-3.95.715-5.387 2.114a7.448 7.448 0 00-2.246 5.336v44.832c0 6.023-4.902 10.922-10.926 10.922-6.02 0-10.922-4.899-10.922-10.922v-48.89a7.44 7.44 0 00-6.004-7.306 215.044 215.044 0 01-11.496-2.62v-139.91a1.317 1.317 0 012.633 0v97.952c0 14.239 11.582 25.817 25.817 25.817 14.238 0 25.82-11.578 25.82-25.817v-58.383a25.958 25.958 0 0010.894 2.375c14.235 0 25.817-11.582 25.817-25.82v-88.183a6.47 6.47 0 00-.031-.676c.378-10.574-3.504-20.973-10.758-28.696l-28.969-30.835a14.023 14.023 0 00-13.758-3.973 14.033 14.033 0 00-9.59 8.617l-14.968-14.969c-1.004-1-.727-2.597.148-3.527l28.059-29.723a16.86 16.86 0 003.187 4.457l18.64 18.64a20.414 20.414 0 0014.446 5.99c1.305 0 2.621-.126 3.93-.38a20.417 20.417 0 0014.918-12.11l3.597-8.515c3.258-7.703 1.54-16.504-4.375-22.418l-16.785-16.78c-3.289-3.294-7.851-5.095-12.492-4.977a17.077 17.077 0 00-12.203 5.652l-7.246 8.094a15.497 15.497 0 00-.977-1.688 16.897 16.897 0 00-14.05-7.508h-80.59c-21.332 0-38.938 17.356-39.246 38.684a57.855 57.855 0 0013.414 37.879l23.082 27.676v156.265a7.447 7.447 0 007.449 7.446 7.446 7.446 0 007.445-7.446v-158.96a7.43 7.43 0 00-1.726-4.77l-24.813-29.75a42.974 42.974 0 01-9.96-28.121c.19-13.239 11.116-24.008 24.355-24.008h80.59c2.015.41 2.437 1.605 1.253 3.586l-30.668 32.492a17.165 17.165 0 00-4.976 12.137 17.18 17.18 0 005.058 12.218l16.083 16.082a13.969 13.969 0 0013.582 3.575c4.332-1.2 7.8-4.422 9.347-8.586l27.95 29.754c4.706 5.007 7.144 11.816 6.695 18.687a7.08 7.08 0 00.058 1.496v87.172c0 6.024-4.902 10.926-10.925 10.926-5.938 0-10.727-4.66-10.899-10.606-.117-4.07-3.496-7.34-7.55-7.234a7.447 7.447 0 00-7.34 7.445v81.297c0 6.024-4.899 10.926-10.922 10.926-6.024 0-10.926-4.902-10.926-10.926v-97.953c0-8.937-7.27-16.21-16.207-16.21-8.942 0-16.211 7.273-16.211 16.21V481.61c0 6.024-4.903 10.922-10.922 10.922-6.023 0-10.926-4.898-10.926-10.922V372.68a7.444 7.444 0 00-7.445-7.445 7.447 7.447 0 00-7.45 7.446v33.683a210.27 210.27 0 01-34.702-24.851 7.445 7.445 0 00-12.375 5.582v10.015c0 6.024-4.903 10.922-10.926 10.922-6.024 0-10.922-4.898-10.922-10.922v-51.976a7.438 7.438 0 00-1.262-4.149c-23.152-34.523-35.39-74.824-35.39-116.554 0-24.407 4.156-48.309 12.347-71.051a7.446 7.446 0 10-14.012-5.047C4.95 172.695.5 198.297.5 224.43c0 43.93 12.664 86.39 36.652 122.949v49.73c0 14.235 11.582 25.817 25.817 25.817 12.414 0 22.808-8.805 25.27-20.5a224.072 224.072 0 0032.734 20.93v58.25c0 14.238 11.582 25.82 25.82 25.82 14.234 0 25.816-11.582 25.816-25.82v-38.91c.868.206 1.735.429 2.606.624v42.86c0 14.238 11.582 25.82 25.816 25.82 14.235 0 25.817-11.582 25.817-25.82v-37.325a224.478 224.478 0 0057.988-8.09v40.84c0 14.239 11.582 25.82 25.816 25.82 14.239 0 25.817-11.581 25.817-25.82V451.02a25.7 25.7 0 0010.926 2.425 25.63 25.63 0 0010.921-2.433v30.593c0 14.239 11.582 25.82 25.817 25.82 14.234 0 25.816-11.581 25.816-25.82V351.48c25.793-37.476 39.426-81.355 39.426-127.05zM227.359 102.633l10.325-11.524a2.074 2.074 0 011.515-.703h.063c.41 0 .98.114 1.488.621l16.781 16.782a5.53 5.53 0 011.192 6.09l-3.602 8.515c-1.039 2.457-3.18 3.117-4.05 3.285-.876.172-3.102.364-4.989-1.523l-18.64-18.637a2.119 2.119 0 01-.083-2.906zM352.375 166.3a12.946 12.946 0 01-17.934-.399 12.882 12.882 0 01-3.8-9.175V122.91c0-7.445-2.903-14.445-8.164-19.71l-44.055-44.055c-5.266-5.262-12.266-8.16-19.707-8.16H150.504a2.44 2.44 0 01-2.438-2.438V29.449a209.425 209.425 0 0172.567-14.515 190.17 190.17 0 013.949-.047c.07 0 .14-.004.211-.004.23 0 .46.008.691.008 1.254.004 2.504.023 3.754.046.703.016 1.403.032 2.102.055.617.016 1.234.047 1.851.07 70.942 2.852 135.82 41.57 172.051 102.86L352.375 166.3z" fill="#000"/></g></svg>