<svg xmlns="http://www.w3.org/2000/svg" viewBox="0 0 2575 1483"><g fill="none" fill-rule="evenodd"><g fill-rule="nonzero"><path d="M2574.28 1302.55c-23 5.74-145.65 124.71-580.42 150.92v-156.62c.005-69.553 56.327-125.969 125.88-126.09 4 0 8.043.193 12.13.58 249.35 30.27 420.33 81.36 442.41 131.21z" fill="#E5F1EF"/><path d="M2272.07 809.6c-1.65 2.37-107.38 154.64-140.2 361.74a128.51 128.51 0 00-12.13-.58c-69.553.121-125.875 56.537-125.88 126.09v156.62c-36.16 3.333-73.557 6.403-112.19 9.21-178.21 13-381.1 20.28-596.36 20.28s-418.16-7.33-596.37-20.28C327 1436.36 66.89 1386.84 11.71 1328.39c171.06 134.49 1955.69 2.8 1980.38-127.19 3.93-20.68-6.85-35.87-27.24-47-18.36-7.87-60.2-32.44-270.18-31.3-144.65.78-127.12-15.72-124.83-18.82 30.67-41.47 529.41-142.69 702.23-294.48z" fill="#C8D9D2"/><path d="M9.83 1325c145.63 140 1957.37 7.22 1982.26-123.83 22.82-120.14-450.52-54.77-422.25-97.17 28.27-42.4 726.22-189 726.21-346.37 0-77.68-638.82-102.41-1229.89 48.31C36.29 1068.57-32.61 1284.24 9.83 1325z" fill="#E5F1EF"/></g><g transform="translate(598 3)"><path d="M357.89 829.14V717.38a254.43 254.43 0 0156.45-24.42l230.39-68.06s-7.54 15.77-17.83 39.64l-269.01 164.6z" fill="#423C52" fill-rule="nonzero"/><path d="M618.48 943.8H385.59a27.69 27.69 0 01-27.7-27.69V717.38a254.43 254.43 0 0156.45-24.42l230.39-68.06s-29.07 60.85-51 124.46c-14.72 42.57-26.25 86.39-23.78 114 4.62 52.12 48.53 80.44 48.53 80.44z" stroke="#423C52" stroke-width="5" fill="#FFF" fill-rule="nonzero" stroke-linecap="round"/><path d="M414.34 693l230.39-68.06s-29.07 60.85-51 124.46l-169.58 50.1a254.85 254.85 0 00-66.21 30.41V717.38a254.43 254.43 0 0156.4-24.38z" fill="#423C52" fill-rule="nonzero"/><path d="M1282 943.8h-155.45s49.77-105.43 33.45-200.54c-7.9-46-21.44-82.6-35.06-110.16a318 318 0 00-21.53-37.27 22.25 22.25 0 00-37.63 1.32c62.19-106.67 170.5-195.37 269-263.58-7.84 15.71-20.1 65.15-20.83 128.16-.5 42.56 4.28 91.3 19.23 140 39.92 130.11 49.42 283.75-51.18 342.07z" stroke="#423C52" stroke-width="5" fill="#FFF" fill-rule="nonzero" stroke-linecap="round"/><path d="M1334.77 333.57c-7.84 15.71-20.1 65.15-20.83 128.16-66.74 48.34-135.29 105.73-189 171.37a318 318 0 00-21.53-37.27 22.25 22.25 0 00-37.63 1.32c62.22-106.67 170.5-195.37 268.99-263.58z" fill="#423C52" fill-rule="nonzero"/><path d="M1611.62.34H471.07C200.88.34-13.77 227.44 1.46 497.2l23.33 413.5c1.045 18.568 16.402 33.092 35 33.1h208.88l-12.58-14.33a67.86 67.86 0 01-13.63-65.58l3.38-10.52c27.106-77.445 89.81-137.124 168.5-160.37L765.4 589.29a45.91 45.91 0 0158.91 44v279.87c.017 16.935 13.755 30.651 30.69 30.64h210.6s-34-45.4-46.06-109.55c-52.73-280.37 285.35-484.39 447.67-586.75L1611.62.34z" stroke="#423C52" stroke-width="5" fill="#FFF" fill-rule="nonzero" stroke-linecap="round"/><path d="M1467.22 247.5c-16.38 10.33-34.56 21.7-53.94 34.08-93.13-88.32-119.55-186-126.71-242.6l2.75 3.17c14.22 48.67 51.06 130.56 145 194.93l.47.32a57.3 57.3 0 0032.43 10.1z" fill="#423C52" fill-rule="nonzero"/><path d="M1645.18 41.92c-14.16 48.64-51 130.69-145.08 195.16l-.47.32c-19.514 13.46-45.316 13.46-64.83 0l-.47-.32c-94.1-64.47-130.92-146.52-145.08-195.16-6-20.7 8.84-41.58 29.5-41.58h18.57a36.3 36.3 0 0129.5 15.47l.13.18a6.61 6.61 0 0010.8 0c7.09-9.44 20.31-15.67 36.26-15.67h104.44c15.55 0 29.07 6.27 36.28 15.77a6.59 6.59 0 0010.76-.07l.17-.23a36.3 36.3 0 0129.5-15.47h20.52c20.66.02 35.53 20.9 29.5 41.6z" stroke="#423C52" stroke-width="5" fill="#FFF" fill-rule="nonzero" stroke-linecap="round"/><path d="M1308.38 36.76a8.76 8.76 0 018.76-8.76h2.36a22.45 22.45 0 0122.5 22.45M1626.83 36.76a8.76 8.76 0 00-8.76-8.76h-2.35a22.45 22.45 0 00-22.46 22.45" stroke="#423C52" stroke-width="5" stroke-linecap="round"/><rect fill="#423C52" fill-rule="nonzero" x="1440.32" y="145.81" width="52.41" height="30.03" rx="14.91"/><circle fill="#423C52" fill-rule="nonzero" cx="1412.91" cy="138.18" r="5.5"/><circle fill="#423C52" fill-rule="nonzero" cx="1527.3" cy="138.18" r="5.5"/></g></g></svg>