<?xml version="1.0" encoding="UTF-8"?>
<svg width="2575px" height="1483px" viewBox="0 0 2575 1483" version="1.1" xmlns="http://www.w3.org/2000/svg" xmlns:xlink="http://www.w3.org/1999/xlink">
    <title>Asset 7</title>
    <desc>Created with Sketch.</desc>
    <defs></defs>
    <g id="Page-1" stroke="none" stroke-width="1" fill="none" fill-rule="evenodd">
        <g id="Asset-7" transform="translate(0.000000, 3.000000)">
            <g id="ICE" transform="translate(0.000000, 692.000000)" fill-rule="nonzero">
                <path d="M2574.28,607.55 C2551.28,613.29 2428.63,732.26 1993.86,758.47 L1993.86,601.85 C1993.86541,532.296622 2050.18673,475.881346 2119.74,475.76 C2123.74,475.76 2127.78333,475.953333 2131.87,476.34 C2381.22,506.61 2552.2,557.7 2574.28,607.55 Z" id="Shape" fill="#E5F1EF"></path>
                <path d="M2272.07,114.6 C2270.42,116.97 2164.69,269.24 2131.87,476.34 C2127.79,475.953333 2123.74667,475.76 2119.74,475.76 C2050.18673,475.881346 1993.86541,532.296622 1993.86,601.85 L1993.86,758.47 C1957.7,761.803333 1920.30333,764.873333 1881.67,767.68 C1703.46,780.68 1500.57,787.96 1285.31,787.96 C1070.05,787.96 867.15,780.63 688.94,767.68 C327,741.36 66.89,691.84 11.71,633.39 C182.77,767.88 1967.4,636.19 1992.09,506.2 C1996.02,485.52 1985.24,470.33 1964.85,459.2 C1946.49,451.33 1904.65,426.76 1694.67,427.9 C1550.02,428.68 1567.55,412.18 1569.84,409.08 C1600.51,367.61 2099.25,266.39 2272.07,114.6 Z" id="Shape" fill="#C8D9D2"></path>
                <path d="M9.83,630 C155.46,770 1967.2,637.22 1992.09,506.17 C2014.91,386.03 1541.57,451.4 1569.84,409 C1598.11,366.6 2296.06,220 2296.05,62.63 C2296.05,-15.05 1657.23,-39.78 1066.16,110.94 C36.29,373.57 -32.61,589.24 9.83,630 Z" id="Shape" fill="#E5F1EF"></path>
            </g>
            <g id="BEAR" transform="translate(598.000000, 0.000000)">
                <path d="M357.89,829.14 L357.89,717.38 C375.649938,706.987222 394.605068,698.787324 414.34,692.96 L644.73,624.9 C644.73,624.9 637.19,640.67 626.9,664.54 L357.89,829.14 Z" id="Shape" fill="#423C52" fill-rule="nonzero"></path>
                <path d="M618.48,943.8 L385.59,943.8 C378.244423,943.802653 371.198794,940.886493 366.003748,935.693323 C360.808703,930.500153 357.89,923.455578 357.89,916.11 L357.89,717.38 C375.649938,706.987222 394.605068,698.787324 414.34,692.96 L644.73,624.9 C644.73,624.9 615.66,685.75 593.73,749.36 C579.01,791.93 567.48,835.75 569.95,863.36 C574.57,915.48 618.48,943.8 618.48,943.8 Z" id="Shape" stroke="#423C52" stroke-width="5" fill="#FFFFFF" fill-rule="nonzero" stroke-linecap="round"></path>
                <path d="M414.34,693 L644.73,624.94 C644.73,624.94 615.66,685.79 593.73,749.4 L424.15,799.5 C400.737433,806.413243 378.439614,816.654546 357.94,829.91 L357.94,717.38 C375.686088,707.004775 394.624149,698.818429 414.34,693 Z" id="Shape" fill="#423C52" fill-rule="nonzero"></path>
                <path d="M1282,943.8 L1126.55,943.8 C1126.55,943.8 1176.32,838.37 1160,743.26 C1152.1,697.26 1138.56,660.66 1124.94,633.1 C1118.61329,620.20468 1111.42015,607.752832 1103.41,595.83 C1099.11185,589.509008 1091.8699,585.83686 1084.2307,586.104831 C1076.59151,586.372801 1069.62467,590.543371 1065.78,597.15 C1127.97,490.48 1236.28,401.78 1334.78,333.57 C1326.94,349.28 1314.68,398.72 1313.95,461.73 C1313.45,504.29 1318.23,553.03 1333.18,601.73 C1373.1,731.84 1382.6,885.48 1282,943.8 Z" id="Shape" stroke="#423C52" stroke-width="5" fill="#FFFFFF" fill-rule="nonzero" stroke-linecap="round"></path>
                <path d="M1334.77,333.57 C1326.93,349.28 1314.67,398.72 1313.94,461.73 C1247.2,510.07 1178.65,567.46 1124.94,633.1 C1118.61329,620.20468 1111.42015,607.752832 1103.41,595.83 C1099.11185,589.509008 1091.8699,585.83686 1084.2307,586.104831 C1076.59151,586.372801 1069.62467,590.543371 1065.78,597.15 C1128,490.48 1236.28,401.78 1334.77,333.57 Z" id="Shape" fill="#423C52" fill-rule="nonzero"></path>
                <path d="M1611.62,0.34 L471.07,0.34 C200.88,0.34 -13.77,227.44 1.46,497.2 L24.79,910.7 C25.8346908,929.268282 41.1923551,943.792244 59.79,943.8 L268.67,943.8 L256.09,929.47 C240.323056,911.531527 235.146629,886.625433 242.46,863.89 L245.84,853.37 C272.945709,775.924741 335.649999,716.245887 414.34,693 L765.4,589.29 C779.279385,585.192155 794.278461,587.878358 805.873028,596.538363 C817.467594,605.198369 824.300232,618.818318 824.31,633.29 L824.31,913.16 C824.326561,930.094668 838.065327,943.811051 855,943.8 L1065.6,943.8 C1065.6,943.8 1031.6,898.4 1019.54,834.25 C966.81,553.88 1304.89,349.86 1467.21,247.5 L1611.62,0.34 Z" id="Shape" stroke="#423C52" stroke-width="5" fill="#FFFFFF" fill-rule="nonzero" stroke-linecap="round"></path>
                <path d="M1467.22,247.5 C1450.84,257.83 1432.66,269.2 1413.28,281.58 C1320.15,193.26 1293.73,95.58 1286.57,38.98 L1289.32,42.15 C1303.54,90.82 1340.38,172.71 1434.32,237.08 L1434.79,237.4 C1444.33077,243.966912 1455.63766,247.48833 1467.22,247.5 Z" id="Shape" fill="#423C52" fill-rule="nonzero"></path>
                <path d="M1645.18,41.92 C1631.02,90.56 1594.18,172.61 1500.1,237.08 L1499.63,237.4 C1480.1159,250.859917 1454.3141,250.859917 1434.8,237.4 L1434.33,237.08 C1340.23,172.61 1303.41,90.56 1289.25,41.92 C1283.25,21.22 1298.09,0.34 1318.75,0.34 L1337.32,0.34 C1349.07855,0.414277891 1360.0727,6.1796863 1366.82,15.81 L1366.95,15.99 C1368.18858,17.7445064 1370.20235,18.7879008 1372.35,18.7879008 C1374.49765,18.7879008 1376.51142,17.7445064 1377.75,15.99 C1384.84,6.55 1398.06,0.32 1414.01,0.32 L1518.45,0.32 C1534,0.32 1547.52,6.59 1554.73,16.09 C1555.97655,17.8282007 1557.98918,18.8532714 1560.12811,18.8393564 C1562.26705,18.8254414 1564.26617,17.7742719 1565.49,16.02 L1565.66,15.79 C1572.4073,6.1596863 1583.40145,0.394277891 1595.16,0.32 L1615.68,0.32 C1636.34,0.34 1651.21,21.22 1645.18,41.92 Z" id="Shape" stroke="#423C52" stroke-width="5" fill="#FFFFFF" fill-rule="nonzero" stroke-linecap="round"></path>
                <path d="M1308.38,36.76 C1308.38,31.9219856 1312.30199,28 1317.14,28 L1319.5,28 C1325.46277,27.9867199 1331.18587,30.346117 1335.40688,34.5577489 C1339.62789,38.7693809 1342.00001,44.4872166 1342,50.45" id="Shape" stroke="#423C52" stroke-width="5" stroke-linecap="round"></path>
                <path d="M1626.83,36.76 C1626.83,34.4367035 1625.90707,32.2085633 1624.26426,30.5657446 C1622.62144,28.9229259 1620.3933,28 1618.07,28 L1615.72,28 C1609.76416,27.9973471 1604.05134,30.3614369 1599.83899,34.5719162 C1595.62663,38.7823955 1593.26,44.4941568 1593.26,50.45" id="Shape" stroke="#423C52" stroke-width="5" stroke-linecap="round"></path>
                <rect id="Rectangle-path" fill="#423C52" fill-rule="nonzero" x="1440.32" y="145.81" width="52.41" height="30.03" rx="14.91"></rect>
                <circle id="Oval" fill="#423C52" fill-rule="nonzero" cx="1412.91" cy="138.18" r="5.5"></circle>
                <circle id="Oval" fill="#423C52" fill-rule="nonzero" cx="1527.3" cy="138.18" r="5.5"></circle>
            </g>
        </g>
    </g>
</svg>